<?xml version="1.0" encoding="utf-8"?>
<!-- Generator: Adobe Illustrator 16.0.0, SVG Export Plug-In . SVG Version: 6.00 Build 0)  -->
<!DOCTYPE svg PUBLIC "-//W3C//DTD SVG 1.1//EN" "http://www.w3.org/Graphics/SVG/1.1/DTD/svg11.dtd">
<svg version="1.1" xmlns="http://www.w3.org/2000/svg" xmlns:xlink="http://www.w3.org/1999/xlink" x="0px" y="0px"
	 width="175.001px" height="175px" viewBox="0 0 175.001 175" enable-background="new 0 0 175.001 175" xml:space="preserve">
<g id="Layer_2" display="none">
	<rect x="-12.5" y="-8.832" display="inline" stroke="#FFFFFF" stroke-miterlimit="10" width="200" height="200"/>
</g>
<g id="Layer_1">
	<g display="none">
		<g display="inline">
			<g>
				<polygon fill="#3D3D3C" points="324.456,350.535 483.93,349.94 469.507,315.765 484.044,278.698 324.191,279.296 				"/>
			</g>
			<g>
				<polygon fill="#3D3D3C" points="324.524,368.436 491.476,367.812 485.345,353.283 324.467,353.885 				"/>
			</g>
			<g>
				<polygon fill="#3D3D3C" points="324.127,261.394 324.177,275.95 485.358,275.345 491.077,260.771 				"/>
			</g>
			<g>
				<polygon fill="#FFFFFF" points="324.467,353.885 485.345,353.283 483.93,349.94 324.456,350.535 				"/>
			</g>
			<g>
				<polygon fill="#FFFFFF" points="324.191,279.296 484.044,278.698 485.358,275.345 324.177,275.95 				"/>
			</g>
		</g>
		<g display="inline">
			<g>
				<polygon fill="#3D3D3C" points="187.683,350.424 28.21,350.059 42.582,315.866 27.991,278.82 187.843,279.186 				"/>
			</g>
			<g>
				<polygon fill="#3D3D3C" points="187.64,368.329 20.685,367.945 26.798,353.408 187.675,353.773 				"/>
			</g>
			<g>
				<polygon fill="#3D3D3C" points="187.887,261.282 187.854,275.833 26.669,275.468 20.932,260.905 				"/>
			</g>
			<g>
				<polygon fill="#FFFFFF" points="187.675,353.773 26.798,353.408 28.21,350.059 187.683,350.424 				"/>
			</g>
			<g>
				<polygon fill="#FFFFFF" points="187.843,279.186 27.991,278.82 26.669,275.468 187.854,275.833 				"/>
			</g>
		</g>
	</g>
	<g>
		<g>
			<path fill="#06648B" d="M73.479,5.783c7.712-7.711,20.332-7.711,28.041,0c7.712,7.712,22.942,14.021,33.85,14.021
				c10.905,0,19.826,8.922,19.826,19.827c0,10.906,6.31,26.138,14.022,33.849c7.709,7.71,7.709,20.33,0,28.041
				c-7.712,7.71-14.022,22.943-14.022,33.848s-8.921,19.827-19.826,19.827c-10.908,0-26.138,6.309-33.85,14.021
				c-7.709,7.71-20.329,7.71-28.041,0c-7.709-7.712-22.942-14.021-33.849-14.021c-10.904,0-19.827-8.922-19.827-19.827
				s-6.309-26.138-14.02-33.848c-7.711-7.711-7.711-20.331,0-28.041c7.711-7.711,14.02-22.943,14.02-33.849
				c0-10.905,8.923-19.827,19.827-19.827C50.538,19.804,65.77,13.495,73.479,5.783z"/>
		</g>
	</g>
	<g>
		<circle fill="#33BAD7" cx="87.501" cy="87.63" r="66.764"/>
	</g>
	<g>
		<rect x="18.211" y="62.525" fill="#06648B" width="138.58" height="50.211"/>
	</g>
	<g>
		<g>
			<path fill="#FFFFFF" d="M87.5,168.521c-5.011,0-9.709-1.938-13.229-5.457c-7.044-7.046-20.882-12.778-30.848-12.778
				c-10.315,0-18.708-8.393-18.708-18.709c0-9.964-5.732-23.803-12.777-30.849C8.418,97.21,6.48,92.512,6.48,87.5
				s1.938-9.709,5.458-13.229c7.045-7.045,12.777-20.884,12.777-30.849c0-10.315,8.393-18.708,18.708-18.708
				c9.966,0,23.805-5.732,30.848-12.778C77.791,8.418,82.489,6.48,87.5,6.48c5.012,0,9.71,1.938,13.229,5.457
				c7.044,7.046,20.884,12.778,30.85,12.778c10.314,0,18.707,8.393,18.707,18.708c0,9.965,5.732,23.804,12.779,30.849
				c7.293,7.294,7.293,19.163,0,26.457c-7.047,7.046-12.779,20.885-12.779,30.849c0,10.316-8.392,18.709-18.707,18.709
				c-9.965,0-23.804,5.731-30.85,12.778C97.21,166.583,92.513,168.521,87.5,168.521z M87.5,7.382c-4.771,0-9.243,1.844-12.592,5.192
				c-7.189,7.192-21.313,13.043-31.485,13.043c-9.819,0-17.807,7.988-17.807,17.806c0,10.17-5.85,24.295-13.041,31.487
				C9.226,78.258,7.382,82.73,7.382,87.5c0,4.771,1.844,9.242,5.193,12.591c7.191,7.191,13.041,21.316,13.041,31.486
				c0,9.818,7.988,17.807,17.807,17.807c10.172,0,24.296,5.851,31.485,13.042c3.349,3.35,7.821,5.193,12.592,5.193
				s9.243-1.844,12.591-5.193c7.191-7.191,21.316-13.042,31.487-13.042c9.817,0,17.805-7.989,17.805-17.807
				c0-10.17,5.851-24.295,13.043-31.486c6.94-6.943,6.94-18.24,0-25.182c-7.192-7.192-13.043-21.316-13.043-31.487
				c0-9.818-7.988-17.806-17.805-17.806c-10.171,0-24.296-5.851-31.487-13.043C96.744,9.226,92.271,7.382,87.5,7.382z"/>
		</g>
	</g>
	<g>
		<path fill="#06648B" d="M57.857,52.629c0-3.389,1.703-6.549,5.256-6.549c0.982,0,1.85,0.246,2.587,0.737v2.128
			c-0.721-0.491-1.49-0.737-2.325-0.737c-0.933,0-1.686,0.294-2.227,0.884c-0.541,0.59-0.835,1.326-0.9,2.227
			c0.605-0.704,1.49-1.064,2.668-1.064c1.048,0,1.916,0.344,2.62,1.015c0.704,0.671,1.048,1.556,1.048,2.685
			c0,1.195-0.393,2.161-1.195,2.915c-0.786,0.753-1.769,1.129-2.964,1.129C59.544,57.999,57.857,55.969,57.857,52.629z
			 M64.243,54.004c0-1.113-0.835-1.916-1.964-1.916c-0.901,0-1.769,0.605-2.096,1.44c0.065,1.556,0.851,2.44,2.096,2.44
			C63.44,55.969,64.243,55.167,64.243,54.004z"/>
		<path fill="#06648B" d="M70.512,57.148c-1.522-1.13-2.276-2.996-2.276-5.108c0-1.064,0.18-2.03,0.557-2.914
			c0.77-1.785,2.358-3.045,4.388-3.045c1.506,0,2.701,0.589,3.585,1.752c0.9,1.162,1.342,2.57,1.342,4.208s-0.442,3.045-1.342,4.208
			c-0.884,1.162-2.08,1.751-3.585,1.751C72.166,57.999,71.282,57.721,70.512,57.148z M73.181,55.789c0.786,0,1.408-0.36,1.866-1.081
			c0.475-0.737,0.704-1.621,0.704-2.669s-0.229-1.932-0.704-2.652c-0.458-0.737-1.081-1.097-1.866-1.097
			c-0.786,0-1.408,0.36-1.883,1.097c-0.475,0.72-0.704,1.604-0.704,2.652s0.229,1.932,0.704,2.669
			C71.773,55.429,72.395,55.789,73.181,55.789z"/>
		<path fill="#06648B" d="M80.515,54.266v-2.079h5.059v2.079H80.515z"/>
		<path fill="#06648B" d="M88.405,57.77V46.309h4.29c1.85,0,3.373,0.541,4.535,1.604c1.163,1.064,1.752,2.439,1.752,4.126
			s-0.589,3.078-1.752,4.142c-1.162,1.064-2.685,1.588-4.535,1.588H88.405z M90.763,55.658h1.736c2.554,0,4.06-1.342,4.06-3.618
			s-1.506-3.618-4.06-3.618h-1.736V55.658z"/>
		<path fill="#06648B" d="M99.292,57.77l4.912-11.526h2.259l4.912,11.526h-2.505l-1.129-2.652h-4.847l-1.129,2.652H99.292z
			 M103.63,53.169h3.356l-1.67-3.979L103.63,53.169z"/>
		<path fill="#06648B" d="M114.566,57.77v-5.141l-4.437-6.32h2.783l2.849,4.077l2.865-4.077h2.702l-4.421,6.271v5.19H114.566z"/>
	</g>
	<g>
		<path fill="#06648B" d="M43.763,125.534v-5.107l-1.384,0.701v-1.319l1.534-0.823h1.169v6.547H43.763z"/>
		<path fill="#06648B" d="M47.618,125.178c-0.87-0.646-1.3-1.712-1.3-2.918c0-0.608,0.103-1.16,0.318-1.665
			c0.44-1.02,1.347-1.74,2.507-1.74c0.861,0,1.543,0.337,2.048,1.001c0.515,0.664,0.767,1.469,0.767,2.404
			c0,0.936-0.252,1.74-0.767,2.404c-0.505,0.665-1.188,1.001-2.048,1.001C48.562,125.665,48.057,125.506,47.618,125.178z
			 M49.142,124.402c0.449,0,0.805-0.206,1.066-0.617c0.271-0.421,0.402-0.926,0.402-1.525s-0.131-1.104-0.402-1.515
			c-0.262-0.421-0.617-0.626-1.066-0.626c-0.449,0-0.804,0.206-1.076,0.626c-0.271,0.412-0.402,0.917-0.402,1.515
			s0.131,1.104,0.402,1.525C48.338,124.196,48.693,124.402,49.142,124.402z"/>
		<path fill="#06648B" d="M54.213,125.178c-0.87-0.646-1.3-1.712-1.3-2.918c0-0.608,0.103-1.16,0.318-1.665
			c0.44-1.02,1.347-1.74,2.507-1.74c0.861,0,1.543,0.337,2.048,1.001c0.515,0.664,0.767,1.469,0.767,2.404
			c0,0.936-0.252,1.74-0.767,2.404c-0.505,0.665-1.188,1.001-2.048,1.001C55.157,125.665,54.652,125.506,54.213,125.178z
			 M55.737,124.402c0.449,0,0.805-0.206,1.066-0.617c0.271-0.421,0.402-0.926,0.402-1.525s-0.131-1.104-0.402-1.515
			c-0.262-0.421-0.617-0.626-1.066-0.626c-0.449,0-0.804,0.206-1.076,0.626c-0.271,0.412-0.402,0.917-0.402,1.515
			s0.131,1.104,0.402,1.525C54.933,124.196,55.289,124.402,55.737,124.402z"/>
		<path fill="#06648B" d="M60.911,118.93c0.477,0,0.879,0.149,1.188,0.458s0.468,0.683,0.468,1.141c0,0.458-0.159,0.833-0.468,1.141
			c-0.309,0.309-0.711,0.458-1.188,0.458s-0.879-0.149-1.188-0.458c-0.309-0.309-0.468-0.683-0.468-1.141
			c0-0.458,0.159-0.833,0.468-1.141C60.032,119.08,60.434,118.93,60.911,118.93z M60.911,121.287c0.215,0,0.393-0.075,0.533-0.215
			c0.29-0.29,0.29-0.795,0-1.085c-0.14-0.14-0.318-0.215-0.533-0.215c-0.215,0-0.402,0.075-0.542,0.215
			c-0.271,0.29-0.271,0.795,0,1.085C60.509,121.212,60.696,121.287,60.911,121.287z M60.434,125.534l3.91-6.547h0.945l-3.91,6.547
			H60.434z M64.793,122.391c0.477,0,0.879,0.149,1.188,0.458s0.468,0.683,0.468,1.141c0,0.458-0.159,0.833-0.468,1.141
			s-0.711,0.458-1.188,0.458s-0.879-0.15-1.188-0.458c-0.309-0.309-0.467-0.683-0.467-1.141c0-0.458,0.159-0.833,0.467-1.141
			C63.914,122.541,64.316,122.391,64.793,122.391z M64.793,124.748c0.215,0,0.393-0.075,0.533-0.215c0.29-0.29,0.29-0.795,0-1.085
			c-0.14-0.14-0.318-0.215-0.533-0.215c-0.215,0-0.402,0.075-0.542,0.215c-0.271,0.29-0.271,0.795,0,1.085
			C64.391,124.673,64.578,124.748,64.793,124.748z"/>
		<path fill="#06648B" d="M69.799,125.534v-6.547h1.337l1.899,2.712l1.899-2.712h1.328v6.547h-1.328v-4.48l-1.506,2.104H72.68
			l-1.534-2.104v4.48H69.799z"/>
		<path fill="#06648B" d="M78.453,119.847c0.646-0.664,1.459-0.992,2.432-0.992s1.777,0.328,2.422,0.992
			c0.646,0.655,0.973,1.459,0.973,2.413c0,0.945-0.328,1.75-0.973,2.414c-0.645,0.664-1.45,0.991-2.422,0.991
			s-1.787-0.327-2.432-0.991c-0.645-0.664-0.963-1.469-0.963-2.414C77.49,121.306,77.808,120.501,78.453,119.847z M80.885,124.402
			c0.58,0,1.057-0.206,1.44-0.608s0.58-0.917,0.58-1.534c0-0.617-0.197-1.132-0.58-1.534c-0.383-0.402-0.86-0.608-1.44-0.608
			s-1.066,0.206-1.45,0.608c-0.384,0.402-0.571,0.917-0.571,1.534c0,0.618,0.187,1.132,0.571,1.534
			C79.819,124.196,80.305,124.402,80.885,124.402z"/>
		<path fill="#06648B" d="M85.498,125.534v-6.547h1.15l3.302,4.19v-4.19h1.31v6.547h-1.113l-3.33-4.209v4.209H85.498z"/>
		<path fill="#06648B" d="M92.711,125.534v-6.547h4.808v1.207h-3.46v1.263h2.787v1.188h-2.787v1.684h3.563v1.207H92.711z"/>
		<path fill="#06648B" d="M100.57,125.534v-2.937l-2.535-3.61h1.59l1.628,2.329l1.637-2.329h1.543l-2.525,3.582v2.965H100.57z"/>
		<path fill="#06648B" d="M104.35,123.532v-1.188h2.89v1.188H104.35z"/>
		<path fill="#06648B" d="M108.859,125.534v-6.547h3.077c1.197,0,1.983,0.589,1.983,1.637c0,0.664-0.375,1.113-0.823,1.3
			c0.365,0.075,0.673,0.271,0.935,0.58c0.262,0.309,0.393,0.692,0.393,1.169c0,0.552-0.206,1.001-0.617,1.347
			c-0.412,0.346-0.963,0.515-1.656,0.515H108.859z M110.207,121.549h1.515c0.561,0,0.898-0.262,0.898-0.71
			c0-0.458-0.337-0.73-0.898-0.73h-1.515V121.549z M110.207,124.374h1.693c0.664,0,1.066-0.299,1.066-0.852
			c0-0.552-0.402-0.86-1.066-0.86h-1.693V124.374z"/>
		<path fill="#06648B" d="M114.987,125.534l2.806-6.585h1.291l2.806,6.585h-1.431l-0.646-1.515h-2.769l-0.646,1.515H114.987z
			 M117.466,122.905h1.917l-0.954-2.273L117.466,122.905z"/>
		<path fill="#06648B" d="M123.08,124.71c-0.673-0.646-1.01-1.459-1.01-2.451c0-1,0.337-1.814,1.001-2.451
			c0.673-0.636,1.524-0.954,2.544-0.954c0.646,0,1.216,0.141,1.73,0.412v1.356c-0.505-0.337-1.076-0.505-1.721-0.505
			c-0.627,0-1.141,0.206-1.562,0.608c-0.412,0.402-0.618,0.907-0.618,1.534c0,0.627,0.215,1.141,0.636,1.543s0.954,0.599,1.6,0.599
			c0.71,0,1.309-0.187,1.796-0.57v1.356c-0.533,0.318-1.151,0.477-1.862,0.477C124.595,125.665,123.753,125.347,123.08,124.71z"/>
		<path fill="#06648B" d="M128.628,125.534v-6.547h1.347v2.582l2.413-2.582h1.646l-2.778,3.002l3.255,3.545h-1.721l-2.815-3.021
			v3.021H128.628z"/>
	</g>
	<g>
		<path fill="#FFFFFF" d="M34.632,80.069c-0.079-0.589-0.207-1.128-0.381-1.619c-0.176-0.49-0.399-0.897-0.671-1.219
			c-0.272-0.322-0.601-0.484-0.987-0.484c-0.913,0-1.57,0.813-1.974,2.439c-0.404,1.626-0.605,4.317-0.605,8.073
			c0,1.794,0.035,3.42,0.105,4.877c0.07,1.458,0.198,2.698,0.382,3.721c0.184,1.024,0.447,1.808,0.79,2.355
			c0.342,0.546,0.785,0.82,1.329,0.82c0.228,0,0.478-0.098,0.75-0.294c0.271-0.196,0.526-0.49,0.763-0.883s0.434-0.89,0.592-1.493
			c0.158-0.603,0.237-1.31,0.237-2.124v-3.069h-2.5v-4.457h6.133V102.9h-2.79v-2.775H35.75c-0.457,1.177-1.004,2.012-1.645,2.501
			c-0.641,0.49-1.408,0.736-2.303,0.736c-1.158,0-2.102-0.322-2.83-0.967s-1.299-1.64-1.711-2.985
			c-0.413-1.346-0.689-3.006-0.829-4.982c-0.141-1.976-0.21-4.268-0.21-6.875c0-2.523,0.101-4.737,0.303-6.644
			c0.202-1.906,0.548-3.496,1.04-4.772c0.491-1.275,1.141-2.235,1.948-2.88c0.807-0.645,1.816-0.967,3.027-0.967
			c2.07,0,3.562,0.82,4.475,2.459c0.912,1.64,1.369,3.988,1.369,7.043H34.75C34.75,81.232,34.711,80.658,34.632,80.069z"/>
		<path fill="#FFFFFF" d="M44.595,93.818c0,0.757,0.03,1.451,0.092,2.082c0.062,0.63,0.175,1.177,0.342,1.64
			c0.167,0.462,0.395,0.827,0.685,1.093c0.29,0.267,0.653,0.399,1.092,0.399c0.456,0,0.825-0.133,1.105-0.399
			c0.28-0.266,0.504-0.631,0.671-1.093c0.167-0.462,0.28-1.009,0.342-1.64c0.062-0.631,0.092-1.325,0.092-2.082V72.879h3.791v20.939
			c0,1.907-0.167,3.483-0.5,4.73c-0.333,1.248-0.781,2.235-1.342,2.964c-0.562,0.729-1.202,1.22-1.921,1.472
			c-0.72,0.252-1.465,0.378-2.237,0.378c-0.772,0-1.518-0.112-2.237-0.336c-0.72-0.224-1.36-0.679-1.921-1.366
			c-0.562-0.687-1.009-1.661-1.343-2.922s-0.5-2.901-0.5-4.919V72.879h3.791V93.818z"/>
		<path fill="#FFFFFF" d="M63.546,72.879l4.975,30.021h-3.948l-0.869-6.349h-5.001l-0.869,6.349h-3.948l4.975-30.021H63.546z
			 M63.046,91.589L61.23,78.093h-0.053l-1.816,13.497H63.046z"/>
		<path fill="#FFFFFF" d="M76.839,72.879c1.579,0,2.807,0.638,3.685,1.913c0.877,1.276,1.316,3.217,1.316,5.823
			c0,2.019-0.254,3.666-0.763,4.94c-0.509,1.276-1.299,2.096-2.369,2.46V88.1c0.948,0.225,1.641,0.715,2.08,1.472
			c0.438,0.757,0.71,1.976,0.816,3.658c0.035,0.561,0.061,1.17,0.079,1.829c0.018,0.659,0.035,1.395,0.053,2.208
			c0.035,1.598,0.088,2.817,0.158,3.658c0.105,0.841,0.333,1.416,0.684,1.724v0.252h-4.106c-0.193-0.42-0.316-0.904-0.369-1.451
			c-0.053-0.546-0.088-1.114-0.105-1.703l-0.105-5.76c-0.036-1.178-0.22-2.103-0.553-2.775c-0.333-0.672-0.895-1.009-1.685-1.009
			h-2.027V102.9h-3.791V72.879H76.839z M75.207,85.998c0.913,0,1.614-0.343,2.106-1.03c0.491-0.687,0.737-1.843,0.737-3.469
			c0-2.775-0.877-4.163-2.632-4.163h-1.79v8.662H75.207z"/>
		<path fill="#FFFFFF" d="M92.816,72.879l4.975,30.021h-3.948l-0.869-6.349h-5.001l-0.869,6.349h-3.948l4.975-30.021H92.816z
			 M92.316,91.589L90.5,78.093h-0.053l-1.816,13.497H92.316z"/>
		<path fill="#FFFFFF" d="M108.056,93.439h0.053V72.879h3.474V102.9h-4.317l-4.632-21.023h-0.053V102.9h-3.475V72.879h4.37
			L108.056,93.439z"/>
		<path fill="#FFFFFF" d="M125.217,77.84h-4.106v25.06h-3.791V77.84h-4.106v-4.961h12.002V77.84z"/>
		<path fill="#FFFFFF" d="M137.352,77.84h-6.712v7.064h6.317v4.961h-6.317v8.073h6.975v4.961H126.85V72.879h10.502V77.84z"/>
		<path fill="#FFFFFF" d="M150.012,77.84H143.3v7.064h6.317v4.961H143.3v8.073h6.975v4.961H139.51V72.879h10.502V77.84z"/>
	</g>
</g>
</svg>
