<?xml version="1.0" encoding="utf-8"?>
<!-- Generator: Adobe Illustrator 16.0.0, SVG Export Plug-In . SVG Version: 6.00 Build 0)  -->
<!DOCTYPE svg PUBLIC "-//W3C//DTD SVG 1.1//EN" "http://www.w3.org/Graphics/SVG/1.1/DTD/svg11.dtd">
<svg version="1.1" id="Layer_1" xmlns="http://www.w3.org/2000/svg" xmlns:xlink="http://www.w3.org/1999/xlink" x="0px" y="0px"
	 width="200px" height="200px" viewBox="0 0 200 200" enable-background="new 0 0 200 200" xml:space="preserve">
<g>
	<path fill="#48A1AF" d="M100.203,2.698c-53.628,0-97.103,43.47-97.103,97.103c0,53.625,43.474,97.098,97.103,97.098
		c53.626,0,97.101-43.474,97.101-97.098C197.304,46.167,153.829,2.698,100.203,2.698"/>
	<path fill="#E8C29C" d="M111.882,69.968c-2.294-2.495-6.407-2.438-9.191,0.128l-34.707,32.388c-2.522,2.325-2.89,6.043-0.809,8.306
		c2.079,2.258,5.813,2.204,8.341-0.122l35.725-31.021C114.025,77.086,114.171,72.458,111.882,69.968"/>
	<path fill="#E8C29C" d="M121.776,80.339c-2.421-2.552-6.689-3.028-9.437-0.422l-40.315,39.558
		c-2.489,2.359-2.731,6.156-0.533,8.473c2.194,2.312,5.996,2.272,8.486-0.089l41.643-37.8
		C124.365,87.454,124.196,82.893,121.776,80.339"/>
	<path fill="#E8C29C" d="M131.395,90.829c-2.358-2.426-6.74-2.611-9.45,0.032L88.822,123.69c-2.712,2.636-2.995,6.743-0.637,9.168
		c2.359,2.429,6.47,2.255,9.184-0.382l34.004-31.917C134.086,97.917,133.753,93.256,131.395,90.829"/>
	<path fill="#E8C29C" d="M141.992,99.949c-2.252-2.25-6.729-2.446-9.4,0.226l-18.021,19.817c-2.321,2.323-2.616,5.789-0.665,7.743
		c1.955,1.952,5.423,1.653,7.743-0.67l17.946-19.157C142.271,105.231,144.243,102.198,141.992,99.949"/>
	<path fill="#E8C29C" d="M113.207,44.991c-3.568,0.412-9.902,5.183-16.743,8.9c-6.569,3.574-13.52,5.13-13.916,7.527
		c-1.085,6.579,9.06,6.287,10.251,6.172c10.127-0.992,22.047-7.537,22.047-7.537l15.359,2.234l3.951-20.116
		C134.157,42.172,120.197,44.209,113.207,44.991"/>
	<path fill="#EFE4DB" d="M81.769,62.225c6.351,1.261,10.511-6.312,10.511-6.312C80.116,59.515,81.769,62.225,81.769,62.225"/>
	<polyline fill="#CFAA8E" points="125.004,56.308 111.062,62.172 125.321,57.349 125.004,56.308 	"/>
	<path fill="#E8C29C" d="M159.98,23.276l-8.237,8.437c-3.45,1.663-21.24,11.083-21.24,11.083L99.775,72.998l16.395,17.974
		l15.166,11.35l8.692,5.234c0,0,15.568-13.039,23.641-22.26c7.945-9.075,11.016-14.949,16.568-24.609l6.255-5.451
		C180.036,42.759,170.957,31.862,159.98,23.276"/>
	<path fill="#E8C29C" d="M61.075,152.172l-5.316-6.739l-8.286-6.862l-4.501,4.306l-7.42,9.076c0,0-1.358,3.726-2.072,5.309
		l-6.335,6.495c4.133,4.717,8.715,9.028,13.68,12.871l6.107-6.793c4.312-2.626,6.208-2.217,10.229-5.92
		c4.084-3.763,8.226-9.429,8.226-9.429L61.075,152.172"/>
	<path fill="#E8C29C" d="M60.938,127.112c-1.049-0.917-2.729-0.708-3.754,0.461l-14.272,16.095c-1.13,1.291-1.109,3.154,0.048,4.166
		c1.154,1.008,3.249,0.889,4.377-0.402l13.642-16.54C62.003,129.721,61.983,128.027,60.938,127.112"/>
	<path fill="#E8C29C" d="M68.498,128.841c-1.075-0.97-2.792-0.816-3.832,0.338L47.21,147.896c-1.149,1.274-0.885,3.202,0.299,4.27
		c1.185,1.067,3.253,1.091,4.402-0.182l16.644-19.299C69.596,131.53,69.571,129.808,68.498,128.841"/>
	<path fill="#E8C29C" d="M70.915,136.346c-1.126-1.04-2.983-0.865-4.146,0.395l-14.49,15.381c-1.166,1.259-1.032,3.241,0.094,4.281
		c1.127,1.041,3.242,1.138,4.408-0.122l14.066-15.771C72.01,139.251,72.042,137.387,70.915,136.346"/>
	<path fill="#E8C29C" d="M71.825,144.925c-0.908-0.861-2.474-0.688-3.5,0.39l-8.771,8.392c-1.18,1.241-1.039,3.267,0.005,4.261
		c1.045,0.994,2.397,0.066,3.579-1.178l8.471-8.35C72.636,147.362,72.731,145.788,71.825,144.925"/>
	<path fill="#E8C29C" d="M42.459,131.887c-0.92,0.177-1.451,2.868-2.764,5.434c-1.364,2.671-3.14,5.157-3.264,6.535
		c-0.232,2.699-0.88,8.097-0.88,8.097l7.708-1.719l-1.01-5.894c0,0,2.404-4.655,2.687-8.565
		C44.969,135.315,44.982,131.404,42.459,131.887"/>
	<path fill="#EFE4DB" d="M42.762,131.579c0,0-1.06-0.61-2.329,4.109C40.434,135.688,43.311,134.013,42.762,131.579"/>
	<polyline fill="#CFAA8E" points="39.451,146.713 39.53,147.107 42.916,143.082 42.984,142.836 39.451,146.713 	"/>
	<path fill="#EFE4DB" d="M71.85,145.038c-0.527-0.539-1.301-0.644-2.032-0.006c-0.035,0.031-0.264,0.211-0.296,0.242
		c-0.707,0.691-0.464,1.349,0.088,1.913c0.552,0.564,1.203,0.822,1.91,0.131c0.051-0.051,0.295-0.252,0.344-0.309
		C72.487,146.283,72.361,145.562,71.85,145.038"/>
	<path fill="#EFE4DB" d="M71.091,136.23c-0.699-0.674-1.701-0.779-2.618,0.071c-0.044,0.042-0.332,0.282-0.372,0.323
		c-0.885,0.919-0.546,1.756,0.187,2.461s1.582,1.013,2.466,0.095c0.064-0.066,0.371-0.337,0.431-0.411
		C71.96,137.81,71.77,136.885,71.091,136.23"/>
	<path fill="#EFE4DB" d="M68.454,128.697c-0.737-0.622-1.738-0.66-2.591,0.244c-0.041,0.043-0.31,0.301-0.348,0.345
		c-0.816,0.969-0.425,1.776,0.348,2.428c0.773,0.65,1.635,0.898,2.451-0.07c0.059-0.069,0.346-0.357,0.4-0.436
		C69.421,130.205,69.171,129.301,68.454,128.697"/>
	<path fill="#EFE4DB" d="M61.1,126.92c-0.737-0.622-1.737-0.66-2.59,0.244c-0.041,0.043-0.31,0.301-0.347,0.345
		c-0.817,0.969-0.425,1.776,0.348,2.428c0.772,0.65,1.634,0.897,2.451-0.071c0.059-0.069,0.345-0.356,0.4-0.435
		C62.066,128.428,61.817,127.523,61.1,126.92"/>
	<rect fill="none" width="200" height="200"/>
</g>
</svg>
