<?xml version="1.0" encoding="utf-8"?>
<!-- Generator: Adobe Illustrator 16.0.0, SVG Export Plug-In . SVG Version: 6.00 Build 0)  -->
<!DOCTYPE svg PUBLIC "-//W3C//DTD SVG 1.1//EN" "http://www.w3.org/Graphics/SVG/1.1/DTD/svg11.dtd">
<svg version="1.1" id="Layer_1" xmlns="http://www.w3.org/2000/svg" xmlns:xlink="http://www.w3.org/1999/xlink" x="0px" y="0px"
	 width="136.914px" height="136.914px" viewBox="0 0 136.914 136.914" enable-background="new 0 0 136.914 136.914"
	 xml:space="preserve">
<g>
	<g>
		<g>
			<g>
				<circle fill="#4ABC96" cx="68.457" cy="68.457" r="63.333"/>
			</g>
		</g>
	</g>
</g>
<g>
	<g>
		<path fill="#A07238" d="M99.348,107.743c1.484,1.482,3.892,1.482,5.375,0l0,0c1.485-1.487,1.485-3.893,0-5.376L76.901,74.543
			c-1.483-1.479-3.89-1.479-5.375,0.004l0,0c-1.483,1.48-1.483,3.887,0.002,5.373L99.348,107.743z"/>
	</g>
	<g>
		<path fill="#D4A160" d="M95.631,108.763c1.301,1.297,4.616,0.088,7.407-2.704l0,0c2.793-2.793,4.003-6.11,2.704-7.407
			L76.196,69.101c-1.301-1.298-4.618-0.086-7.409,2.705l0,0c-2.793,2.788-4.004,6.105-2.704,7.41L95.631,108.763z"/>
	</g>
	<g>
		<path fill="#A07238" d="M77.563,70.336l3.886,3.885c0,0-3.549,7.84-11.182,9.044l-2.82-2.818v-3.646L77.563,70.336z"/>
	</g>
</g>
<g>
	<circle fill="#60C3B6" cx="53.545" cy="56.563" r="27.326"/>
</g>
<g>
	<circle fill="#83CECA" cx="51.932" cy="59.197" r="21.467"/>
</g>
<g>
	<path fill="#EBEDEF" d="M32.359,35.38c-11.698,11.699-11.698,30.669,0,42.369c11.701,11.699,30.667,11.699,42.369-0.003
		c11.701-11.697,11.701-30.667,0-42.366C63.026,23.68,44.061,23.68,32.359,35.38z M37.7,40.719
		c8.748-8.749,22.937-8.749,31.688,0.002c8.752,8.748,8.752,22.938,0,31.688c-8.751,8.751-22.939,8.75-31.688,0
		C28.949,63.659,28.945,49.471,37.7,40.719z"/>
</g>
<g opacity="0.7">
	<path fill="#FFFFFF" d="M68.373,53.633c0.56,1.222,0.026,2.679-1.195,3.24c-1.227,0.57-2.682,0.027-3.245-1.189
		c0,0-0.023-0.058-0.142-0.271c-0.847-1.552-4.932-8.138-13.568-8.941c-1.048-0.103-1.873-0.847-2.128-1.809
		c-0.071-0.271-0.099-0.56-0.069-0.859c0.134-1.342,1.323-2.33,2.667-2.195C63.425,42.918,68.247,53.386,68.373,53.633z"/>
</g>
</svg>
