<?xml version="1.0" encoding="utf-8"?>
<!-- Generator: Adobe Illustrator 16.0.0, SVG Export Plug-In . SVG Version: 6.00 Build 0)  -->
<!DOCTYPE svg PUBLIC "-//W3C//DTD SVG 1.1//EN" "http://www.w3.org/Graphics/SVG/1.1/DTD/svg11.dtd">
<svg version="1.1" id="Layer_1" xmlns="http://www.w3.org/2000/svg" xmlns:xlink="http://www.w3.org/1999/xlink" x="0px" y="0px"
	 width="136.833px" height="136.834px" viewBox="0 0 136.833 136.834" enable-background="new 0 0 136.833 136.834"
	 xml:space="preserve">
<g id="Layer_1_1_">
	<g>
		<g>
			<g>
				<circle fill="#A6DC6F" cx="68.417" cy="68.416" r="63.333"/>
			</g>
		</g>
	</g>
</g>
<g>
	<path fill="#0D6C7C" d="M56.097,41.629c-18.479,0-33.461,11.4-33.461,25.455c0,4.676,1.686,9.04,4.572,12.804l-4.465,15
		l18.631-4.968c4.447,1.662,9.432,2.621,14.723,2.621c18.481,0,33.461-11.396,33.461-25.458
		C89.558,53.03,74.581,41.629,56.097,41.629z"/>
</g>
<g>
	<g>
		<circle fill="#D8EAE4" cx="42.724" cy="66.815" r="3.752"/>
	</g>
	<g>
		<circle fill="#D8EAE4" cx="54.48" cy="66.815" r="3.752"/>
	</g>
	<g>
		<circle fill="#D8EAE4" cx="65.984" cy="66.815" r="3.752"/>
	</g>
</g>
<g>
	<path fill="#33C2D1" d="M88.286,48.428c14.569,0,26.385,8.99,26.385,20.072c0,3.688-1.328,7.129-3.604,10.097l3.521,11.827
		l-14.691-3.916c-3.508,1.312-7.436,2.066-11.609,2.066C73.709,88.575,61.9,79.589,61.9,68.5
		C61.9,57.418,73.709,48.428,88.286,48.428z"/>
</g>
<g>
	<g>
		<path fill="#D8EAE4" d="M82.09,67.556c0,1.773-1.438,3.21-3.209,3.21c-1.772,0-3.211-1.438-3.211-3.21s1.438-3.21,3.211-3.21
			C80.652,64.346,82.09,65.784,82.09,67.556z"/>
	</g>
	<g>
		<circle fill="#D8EAE4" cx="88.938" cy="67.556" r="3.21"/>
	</g>
	<g>
		<circle fill="#D8EAE4" cx="98.78" cy="67.556" r="3.21"/>
	</g>
</g>
</svg>
